<svg width="1440" height="572" viewBox="0 0 1440 572" fill="none" xmlns="http://www.w3.org/2000/svg">
  <g clip-path="url(#clip0)">
    <rect width="1440" height="571" transform="translate(0 0.131348)" fill="url(#paint0_linear)" />
    <g clip-path="url(#clip1)">
      <g clip-path="url(#clip2)">
        <path d="M643.221 101.909H637.57L636.496 105.131H633.069L638.891 89.4907H641.878L647.732 105.131H644.305L643.221 101.909ZM638.44 99.2983H642.35L640.385 93.4438L638.44 99.2983ZM652.612 90.6509V93.5083H654.6V95.7856H652.612V101.586C652.612 102.016 652.695 102.324 652.86 102.51C653.024 102.696 653.339 102.79 653.805 102.79C654.149 102.79 654.453 102.764 654.718 102.714V105.067C654.109 105.253 653.483 105.346 652.838 105.346C650.661 105.346 649.551 104.247 649.508 102.048V95.7856H647.811V93.5083H649.508V90.6509H652.612ZM666.348 100.738L668.496 93.5083H671.826L667.153 106.936L666.896 107.548C666.201 109.067 665.055 109.826 663.458 109.826C663.007 109.826 662.548 109.758 662.083 109.622V107.269L662.556 107.28C663.143 107.28 663.58 107.19 663.866 107.011C664.16 106.832 664.389 106.535 664.554 106.12L664.919 105.164L660.848 93.5083H664.188L666.348 100.738ZM672.496 99.2124C672.496 98.0594 672.718 97.0317 673.162 96.1294C673.606 95.2271 674.243 94.5288 675.074 94.0347C675.912 93.5405 676.882 93.2935 677.985 93.2935C679.553 93.2935 680.831 93.7733 681.82 94.7329C682.815 95.6925 683.37 96.9959 683.485 98.6431L683.506 99.438C683.506 101.221 683.009 102.653 682.013 103.735C681.018 104.809 679.682 105.346 678.006 105.346C676.33 105.346 674.991 104.809 673.989 103.735C672.993 102.661 672.496 101.2 672.496 99.3521V99.2124ZM675.6 99.438C675.6 100.541 675.808 101.386 676.223 101.973C676.638 102.553 677.233 102.843 678.006 102.843C678.758 102.843 679.345 102.557 679.768 101.984C680.19 101.404 680.402 100.48 680.402 99.2124C680.402 98.131 680.19 97.2931 679.768 96.6987C679.345 96.1043 678.751 95.8071 677.985 95.8071C677.226 95.8071 676.638 96.1043 676.223 96.6987C675.808 97.286 675.6 98.1991 675.6 99.438ZM692.479 103.95C691.713 104.881 690.653 105.346 689.3 105.346C688.054 105.346 687.101 104.988 686.442 104.272C685.79 103.556 685.457 102.507 685.443 101.125V93.5083H688.548V101.017C688.548 102.227 689.099 102.833 690.202 102.833C691.255 102.833 691.978 102.467 692.372 101.737V93.5083H695.487V105.131H692.565L692.479 103.95ZM704.46 96.4194C704.038 96.3621 703.665 96.3335 703.343 96.3335C702.168 96.3335 701.399 96.731 701.033 97.5259V105.131H697.929V93.5083H700.862L700.947 94.894C701.571 93.827 702.433 93.2935 703.536 93.2935C703.88 93.2935 704.202 93.34 704.503 93.4331L704.46 96.4194ZM712.395 105.131V95.7856H710.665V93.5083H712.395V92.9712C712.409 91.5103 712.856 90.3859 713.737 89.5981C714.625 88.8032 715.875 88.4058 717.486 88.4058C718.453 88.4058 719.628 88.617 721.01 89.0396L720.559 91.6069C719.857 91.3993 719.312 91.2668 718.926 91.2095C718.539 91.145 718.124 91.1128 717.68 91.1128C716.233 91.1128 715.51 91.7537 715.51 93.0356V93.5083H717.798V95.7856H715.51V105.131H712.395ZM722.46 105.131H719.345V93.5083H722.46V105.131ZM727.985 93.5083L728.081 94.8511C728.912 93.8127 730.026 93.2935 731.422 93.2935C732.654 93.2935 733.571 93.6551 734.172 94.3784C734.774 95.1017 735.082 96.1831 735.096 97.6226V105.131H731.992V97.6978C731.992 97.0389 731.848 96.5627 731.562 96.269C731.275 95.9683 730.799 95.8179 730.133 95.8179C729.26 95.8179 728.604 96.1903 728.167 96.9351V105.131H725.063V93.5083H727.985ZM737.108 99.2339C737.108 97.4507 737.531 96.0148 738.376 94.9263C739.228 93.8377 740.374 93.2935 741.813 93.2935C743.088 93.2935 744.08 93.7303 744.789 94.604L744.918 93.5083H747.732V104.745C747.732 105.762 747.499 106.646 747.034 107.398C746.576 108.15 745.928 108.723 745.09 109.117C744.252 109.511 743.271 109.708 742.146 109.708C741.294 109.708 740.463 109.536 739.654 109.192C738.845 108.855 738.233 108.418 737.817 107.881L739.192 105.991C739.966 106.857 740.904 107.291 742.007 107.291C742.83 107.291 743.471 107.069 743.929 106.625C744.388 106.188 744.617 105.565 744.617 104.755V104.132C743.901 104.942 742.959 105.346 741.792 105.346C740.395 105.346 739.264 104.802 738.397 103.713C737.538 102.618 737.108 101.167 737.108 99.3628V99.2339ZM740.213 99.4595C740.213 100.512 740.424 101.339 740.846 101.941C741.269 102.535 741.849 102.833 742.587 102.833C743.532 102.833 744.209 102.478 744.617 101.769V96.8813C744.202 96.1724 743.532 95.8179 742.608 95.8179C741.863 95.8179 741.276 96.1222 740.846 96.731C740.424 97.3397 740.213 98.2492 740.213 99.4595ZM755.577 105.346C753.873 105.346 752.484 104.823 751.409 103.778C750.342 102.732 749.809 101.339 749.809 99.5991V99.2983C749.809 98.131 750.034 97.089 750.486 96.1724C750.937 95.2485 751.574 94.5396 752.398 94.0454C753.228 93.5441 754.174 93.2935 755.234 93.2935C756.823 93.2935 758.073 93.7948 758.983 94.7974C759.899 95.8 760.358 97.2215 760.358 99.062V100.33H752.956C753.057 101.089 753.357 101.697 753.859 102.156C754.367 102.614 755.008 102.843 755.781 102.843C756.977 102.843 757.912 102.41 758.585 101.543L760.111 103.251C759.645 103.91 759.015 104.426 758.22 104.798C757.425 105.164 756.544 105.346 755.577 105.346ZM755.223 95.8071C754.607 95.8071 754.106 96.0148 753.719 96.4302C753.339 96.8455 753.096 97.4399 752.988 98.2134H757.307V97.9663C757.293 97.2788 757.106 96.7489 756.748 96.3765C756.39 95.9969 755.882 95.8071 755.223 95.8071ZM768.761 96.4194C768.339 96.3621 767.966 96.3335 767.644 96.3335C766.47 96.3335 765.7 96.731 765.335 97.5259V105.131H762.23V93.5083H765.163L765.249 94.894C765.872 93.827 766.735 93.2935 767.837 93.2935C768.181 93.2935 768.504 93.34 768.804 93.4331L768.761 96.4194ZM774.619 90.6509V93.5083H776.606V95.7856H774.619V101.586C774.619 102.016 774.701 102.324 774.866 102.51C775.031 102.696 775.346 102.79 775.812 102.79C776.155 102.79 776.46 102.764 776.725 102.714V105.067C776.116 105.253 775.489 105.346 774.845 105.346C772.668 105.346 771.558 104.247 771.515 102.048V95.7856H769.817V93.5083H771.515V90.6509H774.619ZM781.712 105.131H778.597V93.5083H781.712V105.131ZM778.414 90.5005C778.414 90.035 778.568 89.6519 778.876 89.3511C779.191 89.0503 779.618 88.8999 780.155 88.8999C780.685 88.8999 781.107 89.0503 781.422 89.3511C781.737 89.6519 781.895 90.035 781.895 90.5005C781.895 90.9731 781.734 91.3599 781.412 91.6606C781.096 91.9614 780.677 92.1118 780.155 92.1118C779.632 92.1118 779.209 91.9614 778.887 91.6606C778.572 91.3599 778.414 90.9731 778.414 90.5005ZM794.843 99.4272C794.843 101.218 794.434 102.653 793.618 103.735C792.809 104.809 791.713 105.346 790.331 105.346C789.156 105.346 788.207 104.938 787.484 104.122V109.6H784.38V93.5083H787.259L787.366 94.647C788.118 93.7446 789.099 93.2935 790.309 93.2935C791.742 93.2935 792.855 93.8234 793.65 94.8833C794.445 95.9432 794.843 97.4041 794.843 99.2661V99.4272ZM791.738 99.2017C791.738 98.1203 791.545 97.286 791.158 96.6987C790.778 96.1115 790.223 95.8179 789.493 95.8179C788.519 95.8179 787.849 96.1903 787.484 96.9351V101.694C787.864 102.46 788.54 102.843 789.514 102.843C790.997 102.843 791.738 101.629 791.738 99.2017ZM803.171 101.919C803.171 101.54 802.981 101.243 802.602 101.028C802.229 100.806 801.628 100.609 800.797 100.437C798.033 99.8569 796.651 98.6825 796.651 96.9136C796.651 95.8823 797.077 95.0229 797.929 94.3354C798.788 93.6408 799.909 93.2935 801.291 93.2935C802.766 93.2935 803.945 93.6408 804.825 94.3354C805.713 95.0301 806.157 95.9325 806.157 97.0425H803.053C803.053 96.5985 802.91 96.2332 802.623 95.9468C802.337 95.6532 801.889 95.5063 801.28 95.5063C800.758 95.5063 800.353 95.6245 800.067 95.8608C799.78 96.0972 799.637 96.3979 799.637 96.7632C799.637 97.1069 799.798 97.3862 800.12 97.6011C800.45 97.8088 801.001 97.9914 801.775 98.1489C802.548 98.2993 803.2 98.4712 803.73 98.6646C805.37 99.2661 806.19 100.308 806.19 101.791C806.19 102.85 805.735 103.71 804.825 104.369C803.916 105.02 802.741 105.346 801.302 105.346C800.328 105.346 799.461 105.174 798.702 104.831C797.95 104.48 797.36 104.003 796.93 103.402C796.5 102.793 796.285 102.138 796.285 101.436H799.229C799.257 101.987 799.461 102.41 799.841 102.704C800.221 102.997 800.729 103.144 801.366 103.144C801.961 103.144 802.408 103.033 802.709 102.811C803.017 102.582 803.171 102.285 803.171 101.919Z" fill="white" />
        <path d="M462.715 161.605H478.213V165.131H458.38V132.428H462.715V161.605ZM487.196 165.131H483.04V140.829H487.196V165.131ZM482.704 134.382C482.704 133.708 482.906 133.139 483.31 132.675C483.729 132.211 484.343 131.979 485.152 131.979C485.96 131.979 486.574 132.211 486.994 132.675C487.413 133.139 487.622 133.708 487.622 134.382C487.622 135.056 487.413 135.618 486.994 136.067C486.574 136.516 485.96 136.741 485.152 136.741C484.343 136.741 483.729 136.516 483.31 136.067C482.906 135.618 482.704 135.056 482.704 134.382ZM493.078 152.778C493.078 148.989 493.954 145.98 495.706 143.749C497.458 141.502 499.779 140.379 502.669 140.379C505.634 140.379 507.947 141.428 509.61 143.524L509.812 140.829H513.608V164.547C513.608 167.692 512.672 170.17 510.8 171.982C508.943 173.794 506.443 174.7 503.298 174.7C501.546 174.7 499.832 174.325 498.154 173.577C496.477 172.828 495.197 171.802 494.314 170.5L496.47 168.006C498.252 170.208 500.431 171.308 503.006 171.308C505.028 171.308 506.6 170.739 507.723 169.601C508.861 168.463 509.43 166.861 509.43 164.794V162.706C507.768 164.622 505.499 165.581 502.624 165.581C499.779 165.581 497.473 164.435 495.706 162.144C493.954 159.853 493.078 156.731 493.078 152.778ZM497.256 153.25C497.256 155.99 497.818 158.146 498.941 159.718C500.064 161.276 501.636 162.054 503.657 162.054C506.278 162.054 508.202 160.864 509.43 158.483V147.387C508.157 145.066 506.248 143.906 503.702 143.906C501.681 143.906 500.101 144.692 498.963 146.264C497.825 147.836 497.256 150.165 497.256 153.25ZM524.252 143.771C526.094 141.51 528.49 140.379 531.439 140.379C536.576 140.379 539.166 143.277 539.211 149.072V165.131H535.056V149.049C535.041 147.297 534.636 146.002 533.843 145.164C533.064 144.325 531.844 143.906 530.182 143.906C528.834 143.906 527.651 144.265 526.633 144.984C525.615 145.703 524.821 146.646 524.252 147.814V165.131H520.097V130.631H524.252V143.771ZM551.27 134.944V140.829H555.807V144.041H551.27V159.112C551.27 160.085 551.472 160.819 551.877 161.313C552.281 161.792 552.97 162.032 553.943 162.032C554.422 162.032 555.081 161.942 555.92 161.762V165.131C554.827 165.431 553.763 165.581 552.73 165.581C550.873 165.581 549.473 165.019 548.53 163.896C547.587 162.773 547.115 161.178 547.115 159.112V144.041H542.69V140.829H547.115V134.944H551.27ZM564.812 140.829L564.947 143.883C566.804 141.547 569.229 140.379 572.224 140.379C577.36 140.379 579.951 143.277 579.996 149.072V165.131H575.84V149.049C575.825 147.297 575.421 146.002 574.628 145.164C573.849 144.325 572.629 143.906 570.966 143.906C569.619 143.906 568.436 144.265 567.418 144.984C566.399 145.703 565.606 146.646 565.037 147.814V165.131H560.881V140.829H564.812ZM590.977 165.131H586.822V140.829H590.977V165.131ZM586.485 134.382C586.485 133.708 586.687 133.139 587.091 132.675C587.51 132.211 588.124 131.979 588.933 131.979C589.742 131.979 590.356 132.211 590.775 132.675C591.194 133.139 591.404 133.708 591.404 134.382C591.404 135.056 591.194 135.618 590.775 136.067C590.356 136.516 589.742 136.741 588.933 136.741C588.124 136.741 587.51 136.516 587.091 136.067C586.687 135.618 586.485 135.056 586.485 134.382ZM601.779 140.829L601.913 143.883C603.77 141.547 606.196 140.379 609.191 140.379C614.327 140.379 616.917 143.277 616.962 149.072V165.131H612.807V149.049C612.792 147.297 612.388 146.002 611.594 145.164C610.815 144.325 609.595 143.906 607.933 143.906C606.585 143.906 605.402 144.265 604.384 144.984C603.366 145.703 602.572 146.646 602.003 147.814V165.131H597.848V140.829H601.779ZM622.44 152.778C622.44 148.989 623.316 145.98 625.068 143.749C626.82 141.502 629.141 140.379 632.031 140.379C634.996 140.379 637.31 141.428 638.972 143.524L639.174 140.829H642.97V164.547C642.97 167.692 642.034 170.17 640.162 171.982C638.305 173.794 635.805 174.7 632.66 174.7C630.908 174.7 629.194 174.325 627.517 173.577C625.84 172.828 624.559 171.802 623.676 170.5L625.832 168.006C627.614 170.208 629.793 171.308 632.368 171.308C634.39 171.308 635.962 170.739 637.085 169.601C638.223 168.463 638.792 166.861 638.792 164.794V162.706C637.13 164.622 634.861 165.581 631.986 165.581C629.141 165.581 626.835 164.435 625.068 162.144C623.316 159.853 622.44 156.731 622.44 152.778ZM626.618 153.25C626.618 155.99 627.18 158.146 628.303 159.718C629.426 161.276 630.998 162.054 633.02 162.054C635.64 162.054 637.564 160.864 638.792 158.483V147.387C637.519 145.066 635.61 143.906 633.064 143.906C631.043 143.906 629.463 144.692 628.325 146.264C627.187 147.836 626.618 150.165 626.618 153.25ZM663.113 165.131V144.041H659.272V140.829H663.113V138.335C663.113 135.73 663.809 133.716 665.202 132.293C666.594 130.871 668.563 130.16 671.109 130.16C672.067 130.16 673.018 130.287 673.962 130.542L673.737 133.911C673.033 133.776 672.284 133.708 671.491 133.708C670.143 133.708 669.102 134.105 668.369 134.899C667.635 135.678 667.268 136.801 667.268 138.268V140.829H672.457V144.041H667.268V165.131H663.113ZM692.265 165.131C692.025 164.652 691.831 163.799 691.681 162.571C689.749 164.577 687.443 165.581 684.763 165.581C682.367 165.581 680.398 164.907 678.856 163.559C677.329 162.196 676.565 160.474 676.565 158.393C676.565 155.862 677.523 153.901 679.44 152.508C681.371 151.101 684.082 150.397 687.571 150.397H691.614V148.488C691.614 147.035 691.179 145.882 690.311 145.029C689.442 144.16 688.162 143.726 686.47 143.726C684.988 143.726 683.745 144.1 682.742 144.849C681.738 145.598 681.237 146.504 681.237 147.567H677.059C677.059 146.354 677.486 145.186 678.339 144.063C679.208 142.925 680.376 142.027 681.843 141.368C683.326 140.709 684.95 140.379 686.717 140.379C689.517 140.379 691.711 141.083 693.298 142.491C694.885 143.883 695.709 145.807 695.769 148.263V159.449C695.769 161.68 696.053 163.454 696.622 164.772V165.131H692.265ZM685.37 161.964C686.672 161.964 687.908 161.627 689.076 160.954C690.244 160.28 691.09 159.404 691.614 158.326V153.339H688.357C683.266 153.339 680.72 154.829 680.72 157.809C680.72 159.112 681.154 160.13 682.023 160.864C682.891 161.597 684.007 161.964 685.37 161.964ZM716.633 158.685C716.633 157.562 716.206 156.694 715.353 156.08C714.514 155.451 713.039 154.912 710.928 154.462C708.832 154.013 707.162 153.474 705.919 152.845C704.691 152.216 703.778 151.468 703.179 150.599C702.595 149.731 702.303 148.697 702.303 147.5C702.303 145.508 703.141 143.823 704.819 142.446C706.511 141.068 708.667 140.379 711.287 140.379C714.043 140.379 716.274 141.091 717.981 142.513C719.703 143.936 720.564 145.755 720.564 147.971H716.386C716.386 146.833 715.899 145.852 714.926 145.029C713.968 144.205 712.755 143.793 711.287 143.793C709.775 143.793 708.592 144.123 707.738 144.782C706.885 145.441 706.458 146.302 706.458 147.365C706.458 148.368 706.855 149.124 707.649 149.633C708.442 150.142 709.872 150.629 711.939 151.093C714.02 151.557 715.705 152.111 716.992 152.755C718.28 153.399 719.231 154.178 719.845 155.091C720.474 155.99 720.788 157.09 720.788 158.393C720.788 160.564 719.92 162.309 718.183 163.626C716.446 164.929 714.192 165.581 711.422 165.581C709.475 165.581 707.753 165.236 706.256 164.547C704.759 163.859 703.583 162.9 702.73 161.672C701.891 160.43 701.472 159.089 701.472 157.652H705.627C705.702 159.044 706.256 160.153 707.289 160.976C708.337 161.785 709.715 162.189 711.422 162.189C712.994 162.189 714.252 161.875 715.195 161.246C716.154 160.602 716.633 159.748 716.633 158.685ZM732.039 134.944V140.829H736.576V144.041H732.039V159.112C732.039 160.085 732.241 160.819 732.646 161.313C733.05 161.792 733.739 162.032 734.712 162.032C735.191 162.032 735.85 161.942 736.688 161.762V165.131C735.595 165.431 734.532 165.581 733.499 165.581C731.642 165.581 730.242 165.019 729.299 163.896C728.355 162.773 727.884 161.178 727.884 159.112V144.041H723.459V140.829H727.884V134.944H732.039ZM773.79 153.25C773.79 156.948 772.944 159.928 771.252 162.189C769.559 164.45 767.268 165.581 764.379 165.581C761.429 165.581 759.108 164.645 757.416 162.773V174.475H753.26V140.829H757.056L757.258 143.524C758.95 141.428 761.301 140.379 764.311 140.379C767.231 140.379 769.537 141.48 771.229 143.681C772.936 145.882 773.79 148.944 773.79 152.868V153.25ZM769.634 152.778C769.634 150.038 769.05 147.874 767.882 146.287C766.714 144.699 765.112 143.906 763.076 143.906C760.56 143.906 758.673 145.021 757.416 147.252V158.865C758.658 161.081 760.56 162.189 763.121 162.189C765.112 162.189 766.692 161.403 767.86 159.831C769.043 158.243 769.634 155.892 769.634 152.778ZM791.038 144.557C790.409 144.452 789.727 144.4 788.994 144.4C786.268 144.4 784.419 145.56 783.446 147.881V165.131H779.29V140.829H783.333L783.401 143.636C784.763 141.465 786.695 140.379 789.196 140.379C790.004 140.379 790.618 140.484 791.038 140.694V144.557ZM793.529 152.755C793.529 150.375 793.993 148.233 794.921 146.332C795.864 144.43 797.167 142.962 798.829 141.929C800.506 140.896 802.416 140.379 804.557 140.379C807.866 140.379 810.539 141.525 812.575 143.816C814.627 146.107 815.653 149.154 815.653 152.958V153.25C815.653 155.615 815.196 157.742 814.282 159.628C813.384 161.5 812.089 162.96 810.397 164.008C808.72 165.056 806.788 165.581 804.602 165.581C801.307 165.581 798.635 164.435 796.583 162.144C794.547 159.853 793.529 156.821 793.529 153.047V152.755ZM797.706 153.25C797.706 155.945 798.328 158.109 799.57 159.741C800.828 161.373 802.505 162.189 804.602 162.189C806.713 162.189 808.39 161.365 809.633 159.718C810.876 158.056 811.497 155.735 811.497 152.755C811.497 150.09 810.861 147.934 809.588 146.287C808.33 144.625 806.653 143.793 804.557 143.793C802.505 143.793 800.851 144.61 799.593 146.242C798.335 147.874 797.706 150.21 797.706 153.25ZM826.701 134.944V140.829H831.238V144.041H826.701V159.112C826.701 160.085 826.903 160.819 827.308 161.313C827.712 161.792 828.401 162.032 829.374 162.032C829.853 162.032 830.512 161.942 831.351 161.762V165.131C830.257 165.431 829.194 165.581 828.161 165.581C826.304 165.581 824.904 165.019 823.961 163.896C823.018 162.773 822.546 161.178 822.546 159.112V144.041H818.121V140.829H822.546V134.944H826.701ZM834.762 152.755C834.762 150.375 835.227 148.233 836.155 146.332C837.098 144.43 838.401 142.962 840.063 141.929C841.74 140.896 843.65 140.379 845.791 140.379C849.1 140.379 851.773 141.525 853.809 143.816C855.861 146.107 856.887 149.154 856.887 152.958V153.25C856.887 155.615 856.43 157.742 855.516 159.628C854.618 161.5 853.323 162.96 851.631 164.008C849.954 165.056 848.022 165.581 845.836 165.581C842.541 165.581 839.869 164.435 837.817 162.144C835.781 159.853 834.762 156.821 834.762 153.047V152.755ZM838.94 153.25C838.94 155.945 839.562 158.109 840.804 159.741C842.062 161.373 843.739 162.189 845.836 162.189C847.947 162.189 849.624 161.365 850.867 159.718C852.11 158.056 852.731 155.735 852.731 152.755C852.731 150.09 852.095 147.934 850.822 146.287C849.564 144.625 847.887 143.793 845.791 143.793C843.739 143.793 842.085 144.61 840.827 146.242C839.569 147.874 838.94 150.21 838.94 153.25ZM867.935 134.944V140.829H872.472V144.041H867.935V159.112C867.935 160.085 868.137 160.819 868.542 161.313C868.946 161.792 869.635 162.032 870.608 162.032C871.087 162.032 871.746 161.942 872.585 161.762V165.131C871.491 165.431 870.428 165.581 869.395 165.581C867.538 165.581 866.138 165.019 865.195 163.896C864.252 162.773 863.78 161.178 863.78 159.112V144.041H859.355V140.829H863.78V134.944H867.935ZM885.497 159.044L891.158 140.829H895.605L885.834 168.882C884.322 172.925 881.919 174.947 878.624 174.947L877.838 174.879L876.288 174.587V171.218L877.412 171.308C878.819 171.308 879.912 171.024 880.691 170.455C881.484 169.886 882.136 168.845 882.645 167.333L883.566 164.862L874.896 140.829H879.433L885.497 159.044ZM920.063 153.25C920.063 156.948 919.217 159.928 917.525 162.189C915.833 164.45 913.542 165.581 910.652 165.581C907.702 165.581 905.381 164.645 903.689 162.773V174.475H899.533V140.829H903.329L903.531 143.524C905.223 141.428 907.574 140.379 910.584 140.379C913.504 140.379 915.81 141.48 917.502 143.681C919.209 145.882 920.063 148.944 920.063 152.868V153.25ZM915.907 152.778C915.907 150.038 915.323 147.874 914.155 146.287C912.987 144.699 911.385 143.906 909.349 143.906C906.833 143.906 904.946 145.021 903.689 147.252V158.865C904.931 161.081 906.833 162.189 909.394 162.189C911.385 162.189 912.965 161.403 914.133 159.831C915.316 158.243 915.907 155.892 915.907 152.778ZM930.078 165.131H925.923V140.829H930.078V165.131ZM925.586 134.382C925.586 133.708 925.788 133.139 926.192 132.675C926.612 132.211 927.226 131.979 928.034 131.979C928.843 131.979 929.457 132.211 929.876 132.675C930.295 133.139 930.505 133.708 930.505 134.382C930.505 135.056 930.295 135.618 929.876 136.067C929.457 136.516 928.843 136.741 928.034 136.741C927.226 136.741 926.612 136.516 926.192 136.067C925.788 135.618 925.586 135.056 925.586 134.382ZM940.88 140.829L941.014 143.883C942.871 141.547 945.297 140.379 948.292 140.379C953.428 140.379 956.018 143.277 956.063 149.072V165.131H951.908V149.049C951.893 147.297 951.489 146.002 950.695 145.164C949.916 144.325 948.696 143.906 947.034 143.906C945.686 143.906 944.503 144.265 943.485 144.984C942.467 145.703 941.673 146.646 941.104 147.814V165.131H936.949V140.829H940.88ZM961.542 152.778C961.542 148.989 962.418 145.98 964.17 143.749C965.921 141.502 968.242 140.379 971.132 140.379C974.097 140.379 976.411 141.428 978.073 143.524L978.275 140.829H982.071V164.547C982.071 167.692 981.135 170.17 979.263 171.982C977.407 173.794 974.906 174.7 971.761 174.7C970.009 174.7 968.295 174.325 966.618 173.577C964.941 172.828 963.66 171.802 962.777 170.5L964.933 168.006C966.715 170.208 968.894 171.308 971.469 171.308C973.491 171.308 975.063 170.739 976.186 169.601C977.324 168.463 977.893 166.861 977.893 164.794V162.706C976.231 164.622 973.962 165.581 971.087 165.581C968.242 165.581 965.936 164.435 964.17 162.144C962.418 159.853 961.542 156.731 961.542 152.778ZM965.719 153.25C965.719 155.99 966.281 158.146 967.404 159.718C968.527 161.276 970.099 162.054 972.121 162.054C974.741 162.054 976.665 160.864 977.893 158.483V147.387C976.62 145.066 974.711 143.906 972.166 143.906C970.144 143.906 968.564 144.692 967.426 146.264C966.288 147.836 965.719 150.165 965.719 153.25Z" fill="white" />
      </g>
    </g>
    <path d="M590.007 267.028C590.007 266.419 589.792 265.954 589.362 265.631C588.933 265.302 588.159 264.958 587.042 264.6C585.925 264.235 585.04 263.877 584.389 263.526C582.613 262.566 581.725 261.274 581.725 259.648C581.725 258.803 581.961 258.051 582.434 257.392C582.913 256.726 583.597 256.207 584.485 255.834C585.381 255.462 586.383 255.276 587.493 255.276C588.61 255.276 589.606 255.48 590.479 255.888C591.353 256.289 592.03 256.859 592.51 257.596C592.997 258.334 593.24 259.172 593.24 260.11H590.018C590.018 259.394 589.792 258.839 589.341 258.445C588.89 258.044 588.256 257.843 587.439 257.843C586.652 257.843 586.039 258.012 585.603 258.348C585.166 258.678 584.947 259.114 584.947 259.659C584.947 260.167 585.201 260.593 585.71 260.937C586.226 261.281 586.981 261.603 587.977 261.904C589.81 262.455 591.146 263.139 591.983 263.956C592.821 264.772 593.24 265.789 593.24 267.006C593.24 268.36 592.728 269.423 591.704 270.197C590.68 270.963 589.301 271.346 587.568 271.346C586.365 271.346 585.27 271.128 584.281 270.691C583.293 270.247 582.537 269.642 582.015 268.875C581.499 268.109 581.241 267.221 581.241 266.211H584.475C584.475 267.937 585.506 268.8 587.568 268.8C588.335 268.8 588.933 268.646 589.362 268.338C589.792 268.023 590.007 267.586 590.007 267.028ZM602.288 269.95C601.522 270.881 600.462 271.346 599.109 271.346C597.863 271.346 596.91 270.988 596.251 270.272C595.6 269.556 595.267 268.507 595.252 267.125V259.508H598.357V267.017C598.357 268.227 598.908 268.833 600.011 268.833C601.064 268.833 601.787 268.467 602.181 267.737V259.508H605.296V271.131H602.374L602.288 269.95ZM618.212 265.427C618.212 267.289 617.814 268.743 617.019 269.789C616.224 270.827 615.114 271.346 613.689 271.346C612.429 271.346 611.423 270.863 610.671 269.896L610.531 271.131H607.738V254.631H610.843V260.55C611.559 259.712 612.5 259.293 613.668 259.293C615.086 259.293 616.196 259.816 616.998 260.862C617.807 261.9 618.212 263.365 618.212 265.255V265.427ZM615.107 265.202C615.107 264.027 614.921 263.171 614.549 262.634C614.176 262.09 613.621 261.818 612.884 261.818C611.895 261.818 611.215 262.222 610.843 263.032V267.619C611.222 268.435 611.91 268.843 612.905 268.843C613.908 268.843 614.567 268.349 614.882 267.361C615.032 266.888 615.107 266.168 615.107 265.202ZM626.529 267.919C626.529 267.54 626.34 267.243 625.96 267.028C625.588 266.806 624.986 266.609 624.155 266.437C621.391 265.857 620.009 264.682 620.009 262.914C620.009 261.882 620.435 261.023 621.287 260.335C622.147 259.641 623.267 259.293 624.65 259.293C626.125 259.293 627.303 259.641 628.184 260.335C629.072 261.03 629.516 261.932 629.516 263.042H626.411C626.411 262.598 626.268 262.233 625.982 261.947C625.695 261.653 625.248 261.506 624.639 261.506C624.116 261.506 623.711 261.625 623.425 261.861C623.139 262.097 622.995 262.398 622.995 262.763C622.995 263.107 623.156 263.386 623.479 263.601C623.808 263.809 624.36 263.991 625.133 264.149C625.906 264.299 626.558 264.471 627.088 264.665C628.728 265.266 629.548 266.308 629.548 267.791C629.548 268.85 629.093 269.71 628.184 270.369C627.274 271.02 626.1 271.346 624.66 271.346C623.686 271.346 622.82 271.174 622.061 270.831C621.309 270.48 620.718 270.003 620.288 269.402C619.859 268.793 619.644 268.138 619.644 267.436H622.587C622.616 267.987 622.82 268.41 623.199 268.704C623.579 268.997 624.087 269.144 624.725 269.144C625.319 269.144 625.767 269.033 626.068 268.811C626.376 268.582 626.529 268.285 626.529 267.919ZM636.491 268.843C637.064 268.843 637.529 268.686 637.887 268.371C638.245 268.056 638.432 267.637 638.446 267.114H641.357C641.35 267.902 641.135 268.625 640.713 269.284C640.29 269.935 639.71 270.444 638.972 270.809C638.242 271.167 637.433 271.346 636.545 271.346C634.883 271.346 633.573 270.82 632.613 269.767C631.653 268.707 631.173 267.246 631.173 265.384V265.18C631.173 263.39 631.65 261.961 632.602 260.894C633.555 259.827 634.862 259.293 636.523 259.293C637.977 259.293 639.141 259.709 640.014 260.54C640.895 261.363 641.343 262.462 641.357 263.837H638.446C638.432 263.236 638.245 262.749 637.887 262.376C637.529 261.997 637.057 261.807 636.469 261.807C635.746 261.807 635.198 262.072 634.826 262.602C634.461 263.125 634.278 263.977 634.278 265.159V265.481C634.278 266.677 634.461 267.536 634.826 268.059C635.191 268.582 635.746 268.843 636.491 268.843ZM649.761 262.419C649.338 262.362 648.966 262.333 648.644 262.333C647.469 262.333 646.699 262.731 646.334 263.526V271.131H643.229V259.508H646.162L646.248 260.894C646.871 259.827 647.734 259.293 648.837 259.293C649.181 259.293 649.503 259.34 649.804 259.433L649.761 262.419ZM654.641 271.131H651.526V259.508H654.641V271.131ZM651.343 256.5C651.343 256.035 651.497 255.652 651.805 255.351C652.12 255.05 652.546 254.9 653.083 254.9C653.613 254.9 654.036 255.05 654.351 255.351C654.666 255.652 654.824 256.035 654.824 256.5C654.824 256.973 654.662 257.36 654.34 257.661C654.025 257.961 653.606 258.112 653.083 258.112C652.561 258.112 652.138 257.961 651.816 257.661C651.501 257.36 651.343 256.973 651.343 256.5ZM667.782 265.427C667.782 267.289 667.385 268.743 666.59 269.789C665.795 270.827 664.685 271.346 663.26 271.346C661.999 271.346 660.993 270.863 660.241 269.896L660.101 271.131H657.308V254.631H660.413V260.55C661.129 259.712 662.071 259.293 663.238 259.293C664.656 259.293 665.766 259.816 666.568 260.862C667.377 261.9 667.782 263.365 667.782 265.255V265.427ZM664.678 265.202C664.678 264.027 664.491 263.171 664.119 262.634C663.747 262.09 663.192 261.818 662.454 261.818C661.466 261.818 660.785 262.222 660.413 263.032V267.619C660.792 268.435 661.48 268.843 662.475 268.843C663.478 268.843 664.137 268.349 664.452 267.361C664.602 266.888 664.678 266.168 664.678 265.202ZM675.154 271.346C673.45 271.346 672.061 270.823 670.987 269.778C669.919 268.732 669.386 267.339 669.386 265.599V265.298C669.386 264.131 669.612 263.089 670.063 262.172C670.514 261.249 671.151 260.54 671.975 260.045C672.806 259.544 673.751 259.293 674.811 259.293C676.401 259.293 677.65 259.795 678.56 260.797C679.476 261.8 679.935 263.222 679.935 265.062V266.33H672.533C672.634 267.089 672.934 267.697 673.436 268.156C673.944 268.614 674.585 268.843 675.359 268.843C676.555 268.843 677.489 268.41 678.162 267.543L679.688 269.251C679.222 269.91 678.592 270.426 677.797 270.798C677.002 271.164 676.121 271.346 675.154 271.346ZM674.8 261.807C674.184 261.807 673.683 262.015 673.296 262.43C672.917 262.846 672.673 263.44 672.566 264.213H676.884V263.966C676.87 263.279 676.683 262.749 676.325 262.376C675.967 261.997 675.459 261.807 674.8 261.807ZM691.103 256.651V259.508H693.09V261.786H691.103V267.586C691.103 268.016 691.185 268.324 691.35 268.51C691.514 268.696 691.829 268.79 692.295 268.79C692.639 268.79 692.943 268.764 693.208 268.714V271.067C692.599 271.253 691.973 271.346 691.328 271.346C689.151 271.346 688.041 270.247 687.998 268.048V261.786H686.301V259.508H687.998V256.651H691.103ZM694.114 265.212C694.114 264.059 694.336 263.032 694.78 262.129C695.224 261.227 695.861 260.529 696.692 260.035C697.53 259.541 698.5 259.293 699.603 259.293C701.171 259.293 702.45 259.773 703.438 260.733C704.433 261.693 704.988 262.996 705.103 264.643L705.124 265.438C705.124 267.221 704.627 268.653 703.631 269.735C702.636 270.809 701.3 271.346 699.624 271.346C697.949 271.346 696.609 270.809 695.607 269.735C694.611 268.661 694.114 267.2 694.114 265.352V265.212ZM697.218 265.438C697.218 266.541 697.426 267.386 697.841 267.973C698.257 268.553 698.851 268.843 699.624 268.843C700.376 268.843 700.964 268.557 701.386 267.984C701.809 267.404 702.02 266.48 702.02 265.212C702.02 264.131 701.809 263.293 701.386 262.699C700.964 262.104 700.369 261.807 699.603 261.807C698.844 261.807 698.257 262.104 697.841 262.699C697.426 263.286 697.218 264.199 697.218 265.438ZM712.232 265.212C712.232 264.059 712.454 263.032 712.898 262.129C713.342 261.227 713.979 260.529 714.81 260.035C715.648 259.541 716.618 259.293 717.721 259.293C719.289 259.293 720.568 259.773 721.556 260.733C722.551 261.693 723.106 262.996 723.221 264.643L723.242 265.438C723.242 267.221 722.745 268.653 721.749 269.735C720.754 270.809 719.418 271.346 717.742 271.346C716.067 271.346 714.727 270.809 713.725 269.735C712.729 268.661 712.232 267.2 712.232 265.352V265.212ZM715.336 265.438C715.336 266.541 715.544 267.386 715.959 267.973C716.375 268.553 716.969 268.843 717.742 268.843C718.494 268.843 719.082 268.557 719.504 267.984C719.927 267.404 720.138 266.48 720.138 265.212C720.138 264.131 719.927 263.293 719.504 262.699C719.082 262.104 718.487 261.807 717.721 261.807C716.962 261.807 716.375 262.104 715.959 262.699C715.544 263.286 715.336 264.199 715.336 265.438ZM732.215 269.95C731.449 270.881 730.389 271.346 729.036 271.346C727.79 271.346 726.837 270.988 726.178 270.272C725.527 269.556 725.194 268.507 725.179 267.125V259.508H728.284V267.017C728.284 268.227 728.835 268.833 729.938 268.833C730.991 268.833 731.714 268.467 732.108 267.737V259.508H735.223V271.131H732.301L732.215 269.95ZM744.196 262.419C743.774 262.362 743.401 262.333 743.079 262.333C741.905 262.333 741.135 262.731 740.77 263.526V271.131H737.665V259.508H740.598L740.684 260.894C741.307 259.827 742.17 259.293 743.272 259.293C743.616 259.293 743.938 259.34 744.239 259.433L744.196 262.419ZM764.302 271.131H761.079L754.805 260.84V271.131H751.583V255.491H754.805L761.09 265.803V255.491H764.302V271.131ZM772.362 271.346C770.657 271.346 769.268 270.823 768.194 269.778C767.127 268.732 766.593 267.339 766.593 265.599V265.298C766.593 264.131 766.819 263.089 767.27 262.172C767.721 261.249 768.358 260.54 769.182 260.045C770.013 259.544 770.958 259.293 772.018 259.293C773.608 259.293 774.857 259.795 775.767 260.797C776.683 261.8 777.142 263.222 777.142 265.062V266.33H769.74C769.841 267.089 770.141 267.697 770.643 268.156C771.151 268.614 771.792 268.843 772.566 268.843C773.762 268.843 774.696 268.41 775.369 267.543L776.895 269.251C776.429 269.91 775.799 270.426 775.004 270.798C774.209 271.164 773.328 271.346 772.362 271.346ZM772.007 261.807C771.391 261.807 770.89 262.015 770.503 262.43C770.124 262.846 769.88 263.44 769.773 264.213H774.091V263.966C774.077 263.279 773.89 262.749 773.532 262.376C773.174 261.997 772.666 261.807 772.007 261.807ZM789.123 266.91L790.648 259.508H793.645L790.68 271.131H788.081L785.879 263.816L783.676 271.131H781.087L778.123 259.508H781.12L782.634 266.899L784.761 259.508H787.006L789.123 266.91ZM801.587 267.919C801.587 267.54 801.397 267.243 801.018 267.028C800.645 266.806 800.044 266.609 799.213 266.437C796.449 265.857 795.066 264.682 795.066 262.914C795.066 261.882 795.493 261.023 796.345 260.335C797.204 259.641 798.325 259.293 799.707 259.293C801.182 259.293 802.36 259.641 803.241 260.335C804.129 261.03 804.573 261.932 804.573 263.042H801.469C801.469 262.598 801.326 262.233 801.039 261.947C800.753 261.653 800.305 261.506 799.696 261.506C799.174 261.506 798.769 261.625 798.482 261.861C798.196 262.097 798.053 262.398 798.053 262.763C798.053 263.107 798.214 263.386 798.536 263.601C798.866 263.809 799.417 263.991 800.19 264.149C800.964 264.299 801.616 264.471 802.146 264.665C803.785 265.266 804.605 266.308 804.605 267.791C804.605 268.85 804.151 269.71 803.241 270.369C802.332 271.02 801.157 271.346 799.718 271.346C798.744 271.346 797.877 271.174 797.118 270.831C796.366 270.48 795.775 270.003 795.346 269.402C794.916 268.793 794.701 268.138 794.701 267.436H797.645C797.673 267.987 797.877 268.41 798.257 268.704C798.636 268.997 799.145 269.144 799.782 269.144C800.377 269.144 800.824 269.033 801.125 268.811C801.433 268.582 801.587 268.285 801.587 267.919ZM809.991 271.131H806.875V254.631H809.991V271.131ZM818.008 271.346C816.303 271.346 814.914 270.823 813.84 269.778C812.773 268.732 812.239 267.339 812.239 265.599V265.298C812.239 264.131 812.465 263.089 812.916 262.172C813.367 261.249 814.004 260.54 814.828 260.045C815.659 259.544 816.604 259.293 817.664 259.293C819.254 259.293 820.503 259.795 821.413 260.797C822.33 261.8 822.788 263.222 822.788 265.062V266.33H815.387C815.487 267.089 815.788 267.697 816.289 268.156C816.797 268.614 817.438 268.843 818.212 268.843C819.408 268.843 820.342 268.41 821.015 267.543L822.541 269.251C822.075 269.91 821.445 270.426 820.65 270.798C819.855 271.164 818.974 271.346 818.008 271.346ZM817.653 261.807C817.037 261.807 816.536 262.015 816.149 262.43C815.77 262.846 815.526 263.44 815.419 264.213H819.737V263.966C819.723 263.279 819.537 262.749 819.179 262.376C818.82 261.997 818.312 261.807 817.653 261.807ZM828.377 256.651V259.508H830.364V261.786H828.377V267.586C828.377 268.016 828.46 268.324 828.624 268.51C828.789 268.696 829.104 268.79 829.57 268.79C829.913 268.79 830.218 268.764 830.483 268.714V271.067C829.874 271.253 829.247 271.346 828.603 271.346C826.426 271.346 825.316 270.247 825.273 268.048V261.786H823.575V259.508H825.273V256.651H828.377ZM835.911 256.651V259.508H837.898V261.786H835.911V267.586C835.911 268.016 835.993 268.324 836.158 268.51C836.323 268.696 836.638 268.79 837.103 268.79C837.447 268.79 837.751 268.764 838.016 268.714V271.067C837.407 271.253 836.781 271.346 836.136 271.346C833.959 271.346 832.849 270.247 832.806 268.048V261.786H831.109V259.508H832.806V256.651H835.911ZM845.077 271.346C843.373 271.346 841.983 270.823 840.909 269.778C839.842 268.732 839.309 267.339 839.309 265.599V265.298C839.309 264.131 839.534 263.089 839.985 262.172C840.437 261.249 841.074 260.54 841.897 260.045C842.728 259.544 843.674 259.293 844.733 259.293C846.323 259.293 847.573 259.795 848.482 260.797C849.399 261.8 849.857 263.222 849.857 265.062V266.33H842.456C842.556 267.089 842.857 267.697 843.358 268.156C843.867 268.614 844.508 268.843 845.281 268.843C846.477 268.843 847.412 268.41 848.085 267.543L849.61 269.251C849.145 269.91 848.515 270.426 847.72 270.798C846.925 271.164 846.044 271.346 845.077 271.346ZM844.723 261.807C844.107 261.807 843.605 262.015 843.219 262.43C842.839 262.846 842.596 263.44 842.488 264.213H846.807V263.966C846.792 263.279 846.606 262.749 846.248 262.376C845.89 261.997 845.382 261.807 844.723 261.807ZM858.261 262.419C857.839 262.362 857.466 262.333 857.144 262.333C855.969 262.333 855.2 262.731 854.834 263.526V271.131H851.73V259.508H854.663L854.748 260.894C855.371 259.827 856.234 259.293 857.337 259.293C857.681 259.293 858.003 259.34 858.304 259.433L858.261 262.419Z" fill="white" />
    <path d="M585.552 306.792H580.19L578.986 310.131H577.246L582.133 297.334H583.609L588.505 310.131H586.773L585.552 306.792ZM580.7 305.403H585.051L582.871 299.417L580.7 305.403ZM592.871 307.925L595.226 300.622H596.887L593.477 310.131H592.238L588.793 300.622H590.454L592.871 307.925ZM604.382 310.131C604.289 309.944 604.212 309.61 604.154 309.129C603.398 309.915 602.496 310.307 601.447 310.307C600.509 310.307 599.739 310.043 599.135 309.516C598.538 308.983 598.239 308.309 598.239 307.495C598.239 306.504 598.614 305.737 599.364 305.192C600.12 304.641 601.18 304.366 602.546 304.366H604.128V303.619C604.128 303.05 603.958 302.599 603.618 302.265C603.278 301.925 602.777 301.755 602.115 301.755C601.535 301.755 601.048 301.902 600.656 302.195C600.263 302.488 600.067 302.842 600.067 303.258H598.432C598.432 302.784 598.599 302.327 598.933 301.887C599.273 301.442 599.73 301.09 600.304 300.833C600.884 300.575 601.52 300.446 602.212 300.446C603.307 300.446 604.166 300.721 604.787 301.272C605.408 301.817 605.73 302.57 605.754 303.531V307.908C605.754 308.781 605.865 309.475 606.087 309.991V310.131H604.382ZM601.684 308.892C602.194 308.892 602.677 308.76 603.134 308.497C603.591 308.233 603.922 307.89 604.128 307.468V305.517H602.853C600.861 305.517 599.865 306.1 599.865 307.266C599.865 307.776 600.035 308.174 600.375 308.461C600.714 308.749 601.151 308.892 601.684 308.892ZM610.269 310.131H608.643V300.622H610.269V310.131ZM608.511 298.099C608.511 297.835 608.59 297.613 608.748 297.431C608.913 297.25 609.153 297.159 609.469 297.159C609.786 297.159 610.026 297.25 610.19 297.431C610.354 297.613 610.436 297.835 610.436 298.099C610.436 298.363 610.354 298.583 610.19 298.758C610.026 298.934 609.786 299.022 609.469 299.022C609.153 299.022 608.913 298.934 608.748 298.758C608.59 298.583 608.511 298.363 608.511 298.099ZM614.846 310.131H613.22V296.631H614.846V310.131ZM623.527 310.131C623.434 309.944 623.357 309.61 623.299 309.129C622.543 309.915 621.641 310.307 620.592 310.307C619.654 310.307 618.884 310.043 618.28 309.516C617.683 308.983 617.384 308.309 617.384 307.495C617.384 306.504 617.759 305.737 618.509 305.192C619.265 304.641 620.325 304.366 621.69 304.366H623.272V303.619C623.272 303.05 623.103 302.599 622.763 302.265C622.423 301.925 621.922 301.755 621.26 301.755C620.68 301.755 620.193 301.902 619.801 302.195C619.408 302.488 619.212 302.842 619.212 303.258H617.577C617.577 302.784 617.744 302.327 618.078 301.887C618.418 301.442 618.875 301.09 619.449 300.833C620.029 300.575 620.665 300.446 621.356 300.446C622.452 300.446 623.311 300.721 623.932 301.272C624.553 301.817 624.875 302.57 624.898 303.531V307.908C624.898 308.781 625.01 309.475 625.232 309.991V310.131H623.527ZM620.829 308.892C621.339 308.892 621.822 308.76 622.279 308.497C622.736 308.233 623.067 307.89 623.272 307.468V305.517H621.998C620.006 305.517 619.01 306.1 619.01 307.266C619.01 307.776 619.18 308.174 619.52 308.461C619.859 308.749 620.296 308.892 620.829 308.892ZM635.698 305.482C635.698 306.935 635.364 308.104 634.696 308.989C634.028 309.868 633.132 310.307 632.007 310.307C630.805 310.307 629.877 309.882 629.221 309.033L629.141 310.131H627.647V296.631H629.273V301.667C629.929 300.853 630.835 300.446 631.989 300.446C633.143 300.446 634.049 300.882 634.705 301.755C635.367 302.628 635.698 303.824 635.698 305.341V305.482ZM634.072 305.297C634.072 304.19 633.858 303.334 633.43 302.731C633.003 302.127 632.388 301.826 631.585 301.826C630.513 301.826 629.742 302.324 629.273 303.32V307.433C629.771 308.429 630.548 308.927 631.602 308.927C632.382 308.927 632.988 308.625 633.422 308.022C633.855 307.418 634.072 306.51 634.072 305.297ZM639.721 310.131H638.095V296.631H639.721V310.131ZM646.478 310.307C645.189 310.307 644.14 309.885 643.331 309.042C642.523 308.192 642.119 307.058 642.119 305.64V305.341C642.119 304.398 642.297 303.557 642.655 302.819C643.018 302.075 643.522 301.495 644.166 301.079C644.817 300.657 645.52 300.446 646.276 300.446C647.512 300.446 648.473 300.853 649.159 301.667C649.844 302.482 650.187 303.648 650.187 305.166V305.842H643.745C643.768 306.78 644.04 307.539 644.562 308.119C645.089 308.693 645.757 308.98 646.566 308.98C647.14 308.98 647.626 308.863 648.025 308.628C648.423 308.394 648.772 308.083 649.071 307.697L650.064 308.47C649.267 309.695 648.072 310.307 646.478 310.307ZM646.276 301.782C645.62 301.782 645.069 302.022 644.623 302.502C644.178 302.977 643.903 303.645 643.797 304.506H648.561V304.383C648.514 303.557 648.291 302.918 647.893 302.467C647.495 302.01 646.955 301.782 646.276 301.782ZM660.888 310.307C659.599 310.307 658.55 309.885 657.741 309.042C656.933 308.192 656.528 307.058 656.528 305.64V305.341C656.528 304.398 656.707 303.557 657.064 302.819C657.428 302.075 657.932 301.495 658.576 301.079C659.227 300.657 659.93 300.446 660.686 300.446C661.922 300.446 662.883 300.853 663.568 301.667C664.254 302.482 664.597 303.648 664.597 305.166V305.842H658.154C658.178 306.78 658.45 307.539 658.972 308.119C659.499 308.693 660.167 308.98 660.976 308.98C661.55 308.98 662.036 308.863 662.435 308.628C662.833 308.394 663.182 308.083 663.48 307.697L664.474 308.47C663.677 309.695 662.481 310.307 660.888 310.307ZM660.686 301.782C660.029 301.782 659.479 302.022 659.033 302.502C658.588 302.977 658.312 303.645 658.207 304.506H662.971V304.383C662.924 303.557 662.701 302.918 662.303 302.467C661.904 302.01 661.365 301.782 660.686 301.782ZM669.877 304.093L671.986 300.622H673.885L670.773 305.324L673.981 310.131H672.1L669.903 306.572L667.706 310.131H665.816L669.024 305.324L665.913 300.622H667.794L669.877 304.093ZM679.455 308.98C680.035 308.98 680.542 308.804 680.975 308.453C681.409 308.101 681.649 307.662 681.696 307.134H683.234C683.205 307.679 683.017 308.198 682.671 308.69C682.326 309.182 681.863 309.575 681.283 309.868C680.709 310.161 680.099 310.307 679.455 310.307C678.16 310.307 677.129 309.876 676.361 309.015C675.599 308.148 675.218 306.964 675.218 305.464V305.192C675.218 304.266 675.388 303.443 675.728 302.722C676.068 302.001 676.554 301.442 677.187 301.043C677.826 300.645 678.579 300.446 679.446 300.446C680.512 300.446 681.397 300.765 682.1 301.404C682.809 302.042 683.187 302.872 683.234 303.891H681.696C681.649 303.276 681.415 302.772 680.993 302.379C680.577 301.981 680.061 301.782 679.446 301.782C678.62 301.782 677.978 302.081 677.521 302.678C677.07 303.27 676.844 304.128 676.844 305.253V305.561C676.844 306.657 677.07 307.5 677.521 308.092C677.972 308.684 678.617 308.98 679.455 308.98ZM687.029 310.131H685.403V296.631H687.029V310.131ZM695.71 309.191C695.077 309.935 694.149 310.307 692.924 310.307C691.91 310.307 691.137 310.014 690.604 309.428C690.076 308.836 689.81 307.963 689.804 306.809V300.622H691.43V306.765C691.43 308.207 692.016 308.927 693.188 308.927C694.43 308.927 695.256 308.464 695.666 307.539V300.622H697.292V310.131H695.745L695.71 309.191ZM705.508 307.609C705.508 307.169 705.341 306.83 705.007 306.589C704.679 306.343 704.102 306.132 703.275 305.957C702.455 305.781 701.802 305.57 701.315 305.324C700.835 305.078 700.478 304.785 700.243 304.445C700.015 304.105 699.9 303.701 699.9 303.232C699.9 302.453 700.229 301.793 700.885 301.254C701.547 300.715 702.391 300.446 703.416 300.446C704.494 300.446 705.367 300.724 706.035 301.281C706.709 301.837 707.046 302.549 707.046 303.417H705.411C705.411 302.971 705.221 302.587 704.84 302.265C704.465 301.943 703.99 301.782 703.416 301.782C702.824 301.782 702.361 301.911 702.027 302.168C701.693 302.426 701.526 302.763 701.526 303.179C701.526 303.572 701.682 303.868 701.992 304.067C702.303 304.266 702.862 304.457 703.671 304.638C704.485 304.82 705.145 305.037 705.648 305.289C706.152 305.541 706.524 305.845 706.765 306.203C707.011 306.554 707.134 306.985 707.134 307.495C707.134 308.344 706.794 309.027 706.114 309.542C705.435 310.052 704.553 310.307 703.469 310.307C702.707 310.307 702.033 310.172 701.447 309.903C700.861 309.633 700.401 309.258 700.067 308.778C699.739 308.292 699.575 307.767 699.575 307.205H701.201C701.23 307.75 701.447 308.183 701.852 308.505C702.262 308.822 702.801 308.98 703.469 308.98C704.084 308.98 704.576 308.857 704.945 308.611C705.32 308.359 705.508 308.025 705.508 307.609ZM711.219 310.131H709.593V300.622H711.219V310.131ZM709.461 298.099C709.461 297.835 709.54 297.613 709.698 297.431C709.862 297.25 710.102 297.159 710.419 297.159C710.735 297.159 710.975 297.25 711.139 297.431C711.304 297.613 711.386 297.835 711.386 298.099C711.386 298.363 711.304 298.583 711.139 298.758C710.975 298.934 710.735 299.022 710.419 299.022C710.102 299.022 709.862 298.934 709.698 298.758C709.54 298.583 709.461 298.363 709.461 298.099ZM717.167 307.925L719.522 300.622H721.183L717.773 310.131H716.534L713.088 300.622H714.75L717.167 307.925ZM726.771 310.307C725.482 310.307 724.433 309.885 723.624 309.042C722.816 308.192 722.412 307.058 722.412 305.64V305.341C722.412 304.398 722.59 303.557 722.948 302.819C723.311 302.075 723.815 301.495 724.459 301.079C725.11 300.657 725.813 300.446 726.569 300.446C727.805 300.446 728.766 300.853 729.452 301.667C730.137 302.482 730.48 303.648 730.48 305.166V305.842H724.038C724.061 306.78 724.333 307.539 724.855 308.119C725.382 308.693 726.05 308.98 726.859 308.98C727.433 308.98 727.919 308.863 728.318 308.628C728.716 308.394 729.065 308.083 729.364 307.697L730.357 308.47C729.56 309.695 728.365 310.307 726.771 310.307ZM726.569 301.782C725.913 301.782 725.362 302.022 724.916 302.502C724.471 302.977 724.196 303.645 724.09 304.506H728.854V304.383C728.807 303.557 728.584 302.918 728.186 302.467C727.788 302.01 727.248 301.782 726.569 301.782ZM737.166 302.081C736.92 302.04 736.654 302.019 736.366 302.019C735.3 302.019 734.576 302.473 734.196 303.381V310.131H732.57V300.622H734.152L734.178 301.72C734.711 300.871 735.467 300.446 736.446 300.446C736.762 300.446 737.002 300.487 737.166 300.569V302.081ZM742.139 307.75L744.354 300.622H746.094L742.271 311.599C741.679 313.181 740.738 313.972 739.449 313.972L739.142 313.946L738.535 313.832V312.513L738.975 312.548C739.525 312.548 739.953 312.437 740.258 312.214C740.568 311.992 740.823 311.584 741.022 310.993L741.383 310.026L737.99 300.622H739.766L742.139 307.75ZM751.987 305.289C751.987 304.357 752.169 303.519 752.532 302.775C752.901 302.031 753.411 301.457 754.061 301.052C754.717 300.648 755.464 300.446 756.302 300.446C757.597 300.446 758.643 300.894 759.44 301.791C760.243 302.687 760.644 303.879 760.644 305.368V305.482C760.644 306.408 760.465 307.24 760.108 307.978C759.756 308.71 759.25 309.282 758.587 309.692C757.931 310.102 757.175 310.307 756.32 310.307C755.031 310.307 753.985 309.859 753.182 308.962C752.385 308.066 751.987 306.879 751.987 305.403V305.289ZM753.622 305.482C753.622 306.537 753.865 307.383 754.351 308.022C754.843 308.661 755.5 308.98 756.32 308.98C757.146 308.98 757.802 308.658 758.289 308.013C758.775 307.363 759.018 306.455 759.018 305.289C759.018 304.246 758.769 303.402 758.271 302.757C757.779 302.107 757.123 301.782 756.302 301.782C755.5 301.782 754.852 302.101 754.36 302.74C753.868 303.378 753.622 304.292 753.622 305.482ZM764.421 300.622L764.474 301.817C765.201 300.903 766.15 300.446 767.322 300.446C769.331 300.446 770.345 301.58 770.363 303.847V310.131H768.737V303.838C768.731 303.153 768.573 302.646 768.262 302.318C767.957 301.99 767.48 301.826 766.829 301.826C766.302 301.826 765.839 301.966 765.441 302.248C765.042 302.529 764.732 302.898 764.509 303.355V310.131H762.883V300.622H764.421ZM784.992 304.48H779.622V310.131H777.935V297.334H785.862V298.723H779.622V303.1H784.992V304.48ZM789.596 310.131H787.97V300.622H789.596V310.131ZM787.838 298.099C787.838 297.835 787.917 297.613 788.075 297.431C788.239 297.25 788.479 297.159 788.796 297.159C789.112 297.159 789.352 297.25 789.516 297.431C789.68 297.613 789.762 297.835 789.762 298.099C789.762 298.363 789.68 298.583 789.516 298.758C789.352 298.934 789.112 299.022 788.796 299.022C788.479 299.022 788.239 298.934 788.075 298.758C787.917 298.583 787.838 298.363 787.838 298.099ZM792.019 305.297C792.019 303.815 792.362 302.637 793.047 301.764C793.733 300.885 794.641 300.446 795.772 300.446C796.932 300.446 797.837 300.856 798.488 301.676L798.567 300.622H800.052V309.903C800.052 311.133 799.686 312.103 798.954 312.812C798.227 313.521 797.249 313.875 796.018 313.875C795.333 313.875 794.662 313.729 794.005 313.436C793.349 313.143 792.848 312.742 792.503 312.232L793.346 311.256C794.044 312.118 794.896 312.548 795.904 312.548C796.695 312.548 797.31 312.326 797.75 311.88C798.195 311.435 798.418 310.808 798.418 310V309.182C797.767 309.932 796.879 310.307 795.754 310.307C794.641 310.307 793.739 309.859 793.047 308.962C792.362 308.066 792.019 306.844 792.019 305.297ZM793.654 305.482C793.654 306.554 793.874 307.398 794.313 308.013C794.753 308.623 795.368 308.927 796.159 308.927C797.184 308.927 797.937 308.461 798.418 307.53V303.188C797.92 302.28 797.172 301.826 796.176 301.826C795.385 301.826 794.767 302.133 794.322 302.749C793.877 303.364 793.654 304.275 793.654 305.482ZM804.243 300.622L804.287 301.676C804.984 300.856 805.924 300.446 807.108 300.446C808.438 300.446 809.343 300.956 809.824 301.975C810.14 301.518 810.55 301.149 811.054 300.868C811.564 300.586 812.164 300.446 812.856 300.446C814.942 300.446 816.002 301.55 816.038 303.759V310.131H814.412V303.856C814.412 303.176 814.256 302.669 813.946 302.335C813.635 301.996 813.114 301.826 812.381 301.826C811.778 301.826 811.277 302.007 810.878 302.371C810.48 302.728 810.248 303.211 810.184 303.821V310.131H808.549V303.9C808.549 302.517 807.872 301.826 806.519 301.826C805.453 301.826 804.723 302.28 804.33 303.188V310.131H802.704V300.622H804.243ZM824.57 310.131C824.476 309.944 824.4 309.61 824.341 309.129C823.585 309.915 822.683 310.307 821.634 310.307C820.696 310.307 819.926 310.043 819.322 309.516C818.725 308.983 818.426 308.309 818.426 307.495C818.426 306.504 818.801 305.737 819.551 305.192C820.307 304.641 821.367 304.366 822.733 304.366H824.315V303.619C824.315 303.05 824.145 302.599 823.805 302.265C823.465 301.925 822.964 301.755 822.302 301.755C821.722 301.755 821.236 301.902 820.843 302.195C820.45 302.488 820.254 302.842 820.254 303.258H818.619C818.619 302.784 818.786 302.327 819.12 301.887C819.46 301.442 819.917 301.09 820.491 300.833C821.071 300.575 821.707 300.446 822.399 300.446C823.494 300.446 824.353 300.721 824.974 301.272C825.595 301.817 825.917 302.57 825.941 303.531V307.908C825.941 308.781 826.052 309.475 826.275 309.991V310.131H824.57ZM821.871 308.892C822.381 308.892 822.864 308.76 823.321 308.497C823.779 308.233 824.11 307.89 824.315 307.468V305.517H823.04C821.048 305.517 820.052 306.1 820.052 307.266C820.052 307.776 820.222 308.174 820.562 308.461C820.902 308.749 821.338 308.892 821.871 308.892ZM830.456 310.131H828.83V296.631H830.456V310.131ZM839.137 310.131C839.044 309.944 838.968 309.61 838.909 309.129C838.153 309.915 837.251 310.307 836.202 310.307C835.264 310.307 834.494 310.043 833.89 309.516C833.293 308.983 832.994 308.309 832.994 307.495C832.994 306.504 833.369 305.737 834.119 305.192C834.875 304.641 835.935 304.366 837.301 304.366H838.883V303.619C838.883 303.05 838.713 302.599 838.373 302.265C838.033 301.925 837.532 301.755 836.87 301.755C836.29 301.755 835.804 301.902 835.411 302.195C835.018 302.488 834.822 302.842 834.822 303.258H833.187C833.187 302.784 833.354 302.327 833.688 301.887C834.028 301.442 834.485 301.09 835.059 300.833C835.639 300.575 836.275 300.446 836.967 300.446C838.062 300.446 838.921 300.721 839.542 301.272C840.163 301.817 840.485 302.57 840.509 303.531V307.908C840.509 308.781 840.62 309.475 840.843 309.991V310.131H839.137ZM836.439 308.892C836.949 308.892 837.432 308.76 837.889 308.497C838.346 308.233 838.678 307.89 838.883 307.468V305.517H837.608C835.616 305.517 834.62 306.1 834.62 307.266C834.62 307.776 834.79 308.174 835.13 308.461C835.47 308.749 835.906 308.892 836.439 308.892ZM844.796 300.622L844.848 301.817C845.575 300.903 846.524 300.446 847.696 300.446C849.706 300.446 850.719 301.58 850.737 303.847V310.131H849.111V303.838C849.105 303.153 848.947 302.646 848.636 302.318C848.332 301.99 847.854 301.826 847.204 301.826C846.676 301.826 846.213 301.966 845.815 302.248C845.417 302.529 845.106 302.898 844.883 303.355V310.131H843.257V300.622H844.796ZM852.994 305.297C852.994 303.838 853.339 302.667 854.031 301.782C854.722 300.891 855.627 300.446 856.746 300.446C857.86 300.446 858.742 300.827 859.392 301.588V296.631H861.018V310.131H859.524L859.445 309.112C858.794 309.909 857.889 310.307 856.729 310.307C855.627 310.307 854.728 309.856 854.031 308.954C853.339 308.051 852.994 306.874 852.994 305.42V305.297ZM854.62 305.482C854.62 306.56 854.842 307.404 855.288 308.013C855.733 308.623 856.348 308.927 857.133 308.927C858.164 308.927 858.917 308.464 859.392 307.539V303.17C858.906 302.274 858.159 301.826 857.151 301.826C856.354 301.826 855.733 302.133 855.288 302.749C854.842 303.364 854.62 304.275 854.62 305.482Z" fill="white" />
    <g clip-path="url(#clip3)">
      <path d="M543.5 378.131C543.5 363.22 555.588 351.131 570.5 351.131H869.5C884.412 351.131 896.5 363.22 896.5 378.131C896.5 393.043 884.412 405.131 869.5 405.131H570.5C555.588 405.131 543.5 393.043 543.5 378.131Z" fill="#F4F4F4" />
      <path d="M582.69 378.175L585.288 373.178H586.778L583.347 379.419V383.131H582.034V379.419L578.603 373.178H580.106L582.69 378.175ZM587.179 379.365C587.179 378.64 587.32 377.988 587.603 377.41C587.89 376.831 588.287 376.384 588.792 376.07C589.303 375.755 589.884 375.598 590.536 375.598C591.543 375.598 592.356 375.947 592.976 376.644C593.6 377.341 593.913 378.269 593.913 379.426V379.515C593.913 380.235 593.774 380.882 593.496 381.457C593.222 382.026 592.828 382.471 592.313 382.79C591.802 383.109 591.215 383.268 590.549 383.268C589.547 383.268 588.733 382.919 588.109 382.222C587.489 381.525 587.179 380.602 587.179 379.454V379.365ZM588.451 379.515C588.451 380.335 588.64 380.994 589.018 381.491C589.401 381.987 589.911 382.236 590.549 382.236C591.192 382.236 591.702 381.985 592.08 381.484C592.459 380.978 592.648 380.272 592.648 379.365C592.648 378.554 592.454 377.897 592.067 377.396C591.684 376.89 591.174 376.637 590.536 376.637C589.911 376.637 589.408 376.886 589.025 377.382C588.642 377.879 588.451 378.59 588.451 379.515ZM600.165 382.4C599.673 382.979 598.95 383.268 597.998 383.268C597.209 383.268 596.608 383.04 596.193 382.584C595.783 382.124 595.576 381.445 595.571 380.547V375.735H596.836V380.513C596.836 381.634 597.291 382.195 598.203 382.195C599.169 382.195 599.812 381.835 600.131 381.115V375.735H601.395V383.131H600.192L600.165 382.4ZM606.998 376.87C606.807 376.838 606.599 376.822 606.376 376.822C605.547 376.822 604.984 377.175 604.688 377.881V383.131H603.423V375.735H604.654L604.674 376.589C605.089 375.929 605.677 375.598 606.438 375.598C606.684 375.598 606.871 375.63 606.998 375.694V376.87ZM617.664 378.531H613.351V382.058H618.361V383.131H612.038V373.178H618.293V374.258H613.351V377.458H617.664V378.531ZM621.086 375.735L621.121 376.555C621.663 375.917 622.394 375.598 623.315 375.598C624.349 375.598 625.053 375.995 625.427 376.788C625.673 376.432 625.992 376.145 626.384 375.926C626.781 375.708 627.248 375.598 627.786 375.598C629.408 375.598 630.233 376.457 630.26 378.175V383.131H628.996V378.25C628.996 377.722 628.875 377.328 628.633 377.068C628.392 376.804 627.986 376.671 627.416 376.671C626.947 376.671 626.557 376.813 626.247 377.095C625.938 377.373 625.758 377.749 625.707 378.223V383.131H624.436V378.285C624.436 377.209 623.91 376.671 622.857 376.671C622.027 376.671 621.46 377.025 621.155 377.731V383.131H619.89V375.735H621.086ZM636.841 383.131C636.768 382.986 636.708 382.726 636.663 382.352C636.075 382.963 635.373 383.268 634.557 383.268C633.828 383.268 633.229 383.063 632.76 382.653C632.295 382.238 632.062 381.714 632.062 381.081C632.062 380.31 632.354 379.713 632.937 379.29C633.525 378.861 634.35 378.647 635.412 378.647H636.642V378.066C636.642 377.624 636.51 377.273 636.246 377.013C635.982 376.749 635.592 376.617 635.077 376.617C634.626 376.617 634.248 376.731 633.942 376.958C633.637 377.186 633.484 377.462 633.484 377.786H632.213C632.213 377.417 632.343 377.061 632.602 376.719C632.867 376.373 633.222 376.099 633.669 375.899C634.12 375.698 634.614 375.598 635.152 375.598C636.004 375.598 636.672 375.812 637.155 376.241C637.638 376.665 637.889 377.25 637.907 377.998V381.402C637.907 382.081 637.994 382.621 638.167 383.022V383.131H636.841ZM634.742 382.167C635.138 382.167 635.514 382.065 635.87 381.86C636.225 381.655 636.483 381.388 636.642 381.06V379.542H635.651C634.102 379.542 633.327 379.996 633.327 380.903C633.327 381.299 633.459 381.609 633.723 381.833C633.988 382.056 634.327 382.167 634.742 382.167ZM641.363 383.131H640.099V375.735H641.363V383.131ZM639.996 373.773C639.996 373.568 640.058 373.395 640.181 373.253C640.308 373.112 640.495 373.042 640.741 373.042C640.987 373.042 641.174 373.112 641.302 373.253C641.43 373.395 641.493 373.568 641.493 373.773C641.493 373.978 641.43 374.149 641.302 374.286C641.174 374.422 640.987 374.491 640.741 374.491C640.495 374.491 640.308 374.422 640.181 374.286C640.058 374.149 639.996 373.978 639.996 373.773ZM644.868 383.131H643.603V372.631H644.868V383.131Z" fill="#18171D" />
      <path d="M570.5 352.131H869.5V350.131H570.5V352.131ZM869.5 404.131H570.5V406.131H869.5V404.131ZM570.5 404.131C556.141 404.131 544.5 392.491 544.5 378.131H542.5C542.5 393.595 555.036 406.131 570.5 406.131V404.131ZM895.5 378.131C895.5 392.491 883.859 404.131 869.5 404.131V406.131C884.964 406.131 897.5 393.595 897.5 378.131H895.5ZM869.5 352.131C883.859 352.131 895.5 363.772 895.5 378.131H897.5C897.5 362.667 884.964 350.131 869.5 350.131V352.131ZM570.5 350.131C555.036 350.131 542.5 362.667 542.5 378.131H544.5C544.5 363.772 556.141 352.131 570.5 352.131V350.131Z" fill="#E8E8E8" />
      <path d="M543.5 442.131C543.5 428.324 554.693 417.131 568.5 417.131H871.5C885.307 417.131 896.5 428.324 896.5 442.131C896.5 455.938 885.307 467.131 871.5 467.131H568.5C554.693 467.131 543.5 455.938 543.5 442.131Z" fill="#EF2779" />
      <path d="M690.102 444.202C690.102 443.702 689.924 443.316 689.57 443.045C689.221 442.775 688.589 442.501 687.672 442.225C686.755 441.949 686.026 441.642 685.484 441.303C684.448 440.652 683.93 439.803 683.93 438.756C683.93 437.84 684.302 437.084 685.047 436.491C685.797 435.897 686.768 435.6 687.961 435.6C688.753 435.6 689.458 435.746 690.078 436.038C690.698 436.329 691.185 436.746 691.539 437.288C691.893 437.824 692.07 438.42 692.07 439.077H690.102C690.102 438.483 689.914 438.019 689.539 437.686C689.169 437.347 688.638 437.178 687.945 437.178C687.299 437.178 686.797 437.316 686.438 437.592C686.083 437.868 685.906 438.254 685.906 438.749C685.906 439.165 686.099 439.514 686.484 439.795C686.87 440.071 687.505 440.342 688.391 440.608C689.276 440.868 689.987 441.168 690.523 441.506C691.06 441.84 691.453 442.225 691.703 442.663C691.953 443.095 692.078 443.603 692.078 444.186C692.078 445.134 691.714 445.889 690.984 446.452C690.26 447.009 689.276 447.288 688.031 447.288C687.208 447.288 686.451 447.137 685.758 446.834C685.07 446.527 684.534 446.105 684.148 445.569C683.768 445.032 683.578 444.407 683.578 443.694H685.555C685.555 444.34 685.768 444.84 686.195 445.194C686.622 445.548 687.234 445.725 688.031 445.725C688.719 445.725 689.234 445.587 689.578 445.311C689.927 445.03 690.102 444.66 690.102 444.202ZM698.95 446.303C698.393 446.959 697.601 447.288 696.575 447.288C695.658 447.288 694.963 447.019 694.489 446.483C694.02 445.946 693.786 445.17 693.786 444.155V438.678H695.684V444.131C695.684 445.204 696.13 445.741 697.02 445.741C697.942 445.741 698.565 445.41 698.887 444.749V438.678H700.786V447.131H698.997L698.95 446.303ZM710.337 442.991C710.337 444.303 710.043 445.347 709.455 446.124C708.871 446.9 708.067 447.288 707.041 447.288C706.051 447.288 705.28 446.931 704.728 446.217L704.634 447.131H702.916V435.131H704.814V439.491C705.361 438.845 706.098 438.522 707.025 438.522C708.056 438.522 708.866 438.905 709.455 439.67C710.043 440.436 710.337 441.506 710.337 442.881V442.991ZM708.439 442.827C708.439 441.91 708.278 441.222 707.955 440.764C707.632 440.306 707.163 440.077 706.548 440.077C705.726 440.077 705.147 440.436 704.814 441.155V444.639C705.153 445.374 705.736 445.741 706.564 445.741C707.158 445.741 707.616 445.519 707.939 445.077C708.262 444.634 708.429 443.965 708.439 443.069V442.827ZM716.873 444.834C716.873 444.496 716.733 444.238 716.452 444.061C716.176 443.884 715.715 443.728 715.069 443.592C714.423 443.457 713.884 443.285 713.452 443.077C712.504 442.618 712.03 441.954 712.03 441.084C712.03 440.355 712.337 439.746 712.952 439.256C713.566 438.767 714.347 438.522 715.295 438.522C716.306 438.522 717.121 438.772 717.741 439.272C718.366 439.772 718.678 440.42 718.678 441.217H716.78C716.78 440.853 716.644 440.551 716.373 440.311C716.103 440.066 715.743 439.944 715.295 439.944C714.879 439.944 714.538 440.04 714.272 440.233C714.011 440.426 713.881 440.683 713.881 441.006C713.881 441.298 714.004 441.525 714.248 441.686C714.493 441.847 714.988 442.012 715.733 442.178C716.478 442.34 717.061 442.535 717.483 442.764C717.91 442.988 718.225 443.259 718.428 443.577C718.636 443.894 718.741 444.28 718.741 444.733C718.741 445.493 718.426 446.111 717.795 446.584C717.165 447.053 716.34 447.288 715.319 447.288C714.626 447.288 714.009 447.163 713.467 446.913C712.926 446.663 712.504 446.319 712.202 445.881C711.899 445.444 711.748 444.972 711.748 444.467H713.592C713.618 444.915 713.788 445.262 714.1 445.506C714.413 445.746 714.827 445.866 715.342 445.866C715.842 445.866 716.222 445.772 716.483 445.584C716.743 445.392 716.873 445.142 716.873 444.834ZM724.073 445.772C724.547 445.772 724.941 445.634 725.253 445.358C725.566 445.082 725.732 444.741 725.753 444.334H727.542C727.521 444.861 727.357 445.353 727.05 445.811C726.743 446.264 726.326 446.624 725.8 446.889C725.274 447.155 724.706 447.288 724.097 447.288C722.915 447.288 721.977 446.905 721.284 446.139C720.592 445.374 720.245 444.316 720.245 442.967V442.772C720.245 441.486 720.589 440.457 721.277 439.686C721.964 438.91 722.902 438.522 724.089 438.522C725.094 438.522 725.912 438.816 726.542 439.405C727.178 439.988 727.511 440.756 727.542 441.709H725.753C725.732 441.225 725.566 440.827 725.253 440.514C724.946 440.202 724.553 440.045 724.073 440.045C723.459 440.045 722.985 440.269 722.652 440.717C722.318 441.16 722.149 441.834 722.144 442.741V443.045C722.144 443.962 722.308 444.647 722.636 445.1C722.969 445.548 723.448 445.772 724.073 445.772ZM733.602 440.413C733.352 440.371 733.094 440.35 732.828 440.35C731.958 440.35 731.372 440.683 731.07 441.35V447.131H729.172V438.678H730.984L731.031 439.624C731.49 438.889 732.125 438.522 732.938 438.522C733.208 438.522 733.432 438.558 733.609 438.631L733.602 440.413ZM737.02 447.131H735.122V438.678H737.02V447.131ZM735.005 436.483C735.005 436.191 735.096 435.949 735.278 435.756C735.466 435.564 735.731 435.467 736.075 435.467C736.419 435.467 736.684 435.564 736.872 435.756C737.059 435.949 737.153 436.191 737.153 436.483C737.153 436.769 737.059 437.009 736.872 437.202C736.684 437.389 736.419 437.483 736.075 437.483C735.731 437.483 735.466 437.389 735.278 437.202C735.096 437.009 735.005 436.769 735.005 436.483ZM746.713 442.991C746.713 444.303 746.418 445.347 745.83 446.124C745.246 446.9 744.442 447.288 743.416 447.288C742.426 447.288 741.655 446.931 741.103 446.217L741.009 447.131H739.291V435.131H741.189V439.491C741.736 438.845 742.473 438.522 743.4 438.522C744.431 438.522 745.241 438.905 745.83 439.67C746.418 440.436 746.713 441.506 746.713 442.881V442.991ZM744.814 442.827C744.814 441.91 744.653 441.222 744.33 440.764C744.007 440.306 743.538 440.077 742.923 440.077C742.101 440.077 741.522 440.436 741.189 441.155V444.639C741.528 445.374 742.111 445.741 742.939 445.741C743.533 445.741 743.991 445.519 744.314 445.077C744.637 444.634 744.804 443.965 744.814 443.069V442.827ZM752.233 447.288C751.03 447.288 750.053 446.91 749.303 446.155C748.558 445.394 748.186 444.384 748.186 443.124V442.889C748.186 442.045 748.347 441.293 748.67 440.631C748.998 439.965 749.457 439.446 750.045 439.077C750.634 438.707 751.29 438.522 752.014 438.522C753.165 438.522 754.053 438.889 754.678 439.624C755.308 440.358 755.623 441.397 755.623 442.741V443.506H750.1C750.157 444.204 750.389 444.756 750.795 445.163C751.207 445.569 751.722 445.772 752.342 445.772C753.212 445.772 753.92 445.42 754.467 444.717L755.491 445.694C755.152 446.199 754.699 446.592 754.131 446.874C753.569 447.15 752.936 447.288 752.233 447.288ZM752.006 440.045C751.485 440.045 751.064 440.228 750.741 440.592C750.423 440.957 750.22 441.465 750.131 442.116H753.748V441.975C753.707 441.34 753.537 440.861 753.241 440.538C752.944 440.209 752.532 440.045 752.006 440.045Z" fill="white" />
    </g>
  </g>
  <defs>
    <linearGradient id="paint0_linear" x1="25.0174" y1="571" x2="271.627" y2="-170.988" gradientUnits="userSpaceOnUse">
      <stop stop-color="#EF2779" />
      <stop offset="1" stop-color="#7834BE" />
    </linearGradient>
    <clipPath id="clip0">
      <rect width="1440" height="571" fill="white" transform="translate(0 0.131348)" />
    </clipPath>
    <clipPath id="clip1">
      <rect width="531" height="97" fill="white" transform="translate(454.5 81.1313)" />
    </clipPath>
    <clipPath id="clip2">
      <rect width="531" height="97" fill="white" transform="translate(454.5 81.1313)" />
    </clipPath>
    <clipPath id="clip3">
      <rect width="353" height="164" fill="white" transform="translate(543.5 327.131)" />
    </clipPath>
  </defs>
</svg>